<svg width="160" height="170" viewBox="0 0 160 170" fill="none" xmlns="http://www.w3.org/2000/svg">
<path d="M159.993 104.533C159.993 122.599 159.987 140.668 160 158.734C160 162.067 158.939 164.919 156.454 167.18C154.326 169.118 151.786 169.987 148.925 169.987C135.497 169.984 122.068 169.987 108.64 169.987C86.9739 169.987 65.308 169.974 43.6453 170.003C40.7428 170.007 38.1015 169.405 35.8291 167.523C33.4653 165.566 32.1626 163.05 31.9243 159.998C31.8492 159.025 31.8786 158.041 31.8786 157.061C31.872 148.271 31.8688 139.485 31.8655 130.696C31.8655 129.562 31.8165 129.519 30.651 129.519C23.9644 129.519 17.2779 129.523 10.5881 129.519C5.80503 129.519 1.83164 126.615 0.4865 122.024C0.153479 120.893 0.0359425 119.665 0.0326775 118.482C2.84827e-05 103.625 0.0326775 88.7674 2.84816e-05 73.9102C-0.0130311 67.7282 4.46642 63.0426 10.6469 63.0034C17.1963 62.9642 23.749 62.9871 30.3016 62.9838C31.3573 62.9838 31.8862 62.4436 31.8884 61.3631C31.8818 49.8257 31.8753 38.2882 31.872 26.7541C31.872 21.5294 31.8786 16.3047 31.872 11.08C31.872 8.64248 32.4695 6.40099 33.9583 4.43724C35.9989 1.75138 38.699 0.271218 42.0684 0.055565C42.8258 0.00655291 43.5898 0.0196228 44.3505 0.0196228C65.8271 0.0163553 87.3004 0.0326927 108.777 1.79725e-05C111.794 -0.0032495 114.657 0.437859 117.109 2.26764C118.428 3.25115 119.6 4.44705 120.769 5.61353C126.721 11.5407 132.65 17.4875 138.586 23.4311C144.038 28.8943 149.474 34.3771 154.943 39.8272C156.428 41.3074 157.91 42.7581 158.812 44.7121C159.602 46.4275 159.984 48.2116 159.987 50.0871C159.993 66.1402 159.993 82.1933 159.997 98.2463C159.997 100.341 159.997 102.435 159.997 104.533H159.993ZM154.773 104.523H154.779C154.779 86.539 154.786 68.5516 154.773 50.5674C154.773 48.0939 154.675 48.5873 152.768 48.584C142.412 48.5644 132.052 48.5775 121.696 48.571C119.365 48.571 117.236 47.8881 115.418 46.421C112.835 44.3331 111.51 41.6113 111.51 38.2621C111.51 28.0317 111.51 17.8012 111.503 7.57075C111.503 6.0089 110.703 5.22688 109.103 5.2247C87.4114 5.2247 65.7193 5.2247 44.024 5.2247C43.3743 5.2247 42.7181 5.23124 42.0716 5.29986C39.2442 5.59393 37.1057 7.98572 37.1057 10.8219C37.1057 27.3095 37.1057 43.8005 37.1057 60.2881C37.1057 60.8861 37.122 61.4873 37.0959 62.082C37.0632 62.7453 37.3408 63.0132 38.0101 62.9936C39.1234 62.9642 40.24 62.9903 41.3533 62.9903C56.8747 62.9903 72.3961 62.9642 87.9207 63.0001C92.1226 63.0099 95.3059 64.9214 97.3563 68.6267C98.3782 70.4728 98.5545 72.4889 98.5545 74.5539C98.548 89.166 98.561 103.778 98.548 118.39C98.548 119.338 98.5284 120.315 98.3162 121.23C97.1114 126.389 92.9813 129.542 87.6791 129.532C71.2044 129.506 54.7329 129.516 38.2582 129.513C37.1677 129.513 37.1057 129.568 37.1057 130.676C37.1057 140.171 37.0992 149.67 37.109 159.165C37.109 161.449 38.2027 163.086 40.1812 164.168C41.3337 164.798 42.5875 164.775 43.8379 164.775C77.7636 164.779 111.689 164.782 145.615 164.782C146.81 164.782 148.024 164.906 149.196 164.739C150.271 164.586 151.413 164.305 152.321 163.749C154.133 162.638 154.783 160.841 154.779 158.727C154.76 140.661 154.77 122.592 154.77 104.526L154.773 104.523ZM49.2805 124.308C62.0561 124.308 74.8317 124.314 87.604 124.308C91.153 124.308 93.3437 122.102 93.3437 118.557C93.3437 104.709 93.3437 90.8619 93.3437 77.011C93.3437 75.8413 93.3633 74.6715 93.3339 73.5018C93.2719 71.159 92.0573 69.2998 89.8372 68.6202C88.6227 68.2477 87.2742 68.2183 85.9846 68.2183C61.0048 68.1987 36.025 68.2019 11.0485 68.2085C7.42116 68.2085 5.25 70.3454 5.25 73.9004C5.24673 88.8654 5.25 103.827 5.25 118.792C5.25 122.089 7.48972 124.308 10.7938 124.308C23.6216 124.308 36.4527 124.308 49.2805 124.308ZM150.822 43.1502C150.597 42.8856 150.532 42.8006 150.457 42.7255C144.371 36.6316 138.279 30.5443 132.193 24.4505C127.433 19.68 122.682 14.8997 117.919 10.1324C117.648 9.86125 117.292 9.66846 116.978 9.43974C116.877 9.83837 116.688 10.2403 116.688 10.6389C116.678 17.0856 116.694 23.5323 116.701 29.9791C116.701 32.6715 116.681 35.3639 116.701 38.0595C116.724 41.1702 118.781 43.3463 121.797 43.3561C131.119 43.3822 140.44 43.3659 149.761 43.3561C150.058 43.3561 150.359 43.245 150.822 43.1535V43.1502Z" fill="white"/>
</svg>
