<svg xmlns="http://www.w3.org/2000/svg" viewBox="0 0 288 720"><defs><style>.cls-1{fill:#3b3194;}.cls-2{fill:#ff4e5d;}.cls-3{fill:#d6d4f9;}</style></defs><g id="Capa_2" data-name="Capa 2"><g id="Capa_1-2" data-name="Capa 1"><polygon class="cls-1" points="144 288 144 144 288 144 144 288"/><path class="cls-2" d="M144,720a144,144,0,0,1,0-288Z"/><polygon class="cls-3" points="144 432 0 432 0 288 144 432"/><polygon class="cls-3" points="144 0 288 0 288 144 144 0"/><polygon class="cls-1" points="144 0 144 144 0 144 144 0"/><rect class="cls-3" y="144" width="144" height="144" transform="translate(288 144) rotate(90)"/><polygon class="cls-1" points="144 576 288 576 288 720 144 576"/><circle class="cls-2" cx="216" cy="504" r="72"/><rect class="cls-3" x="144" y="288" width="144" height="144" transform="translate(576 144) rotate(90)"/></g></g></svg>