<svg xmlns="http://www.w3.org/2000/svg" viewBox="0 0 552.72 306.03"><defs><style>.cls-1{fill:#ff4e5d;}</style></defs><g id="Capa_2" data-name="Capa 2"><g id="Capa_1-2" data-name="Capa 1"><circle class="cls-1" cx="280.04" cy="19.26" r="19.26"/><path class="cls-1" d="M242.08,138.15a43.28,43.28,0,0,1-18.41,27.23,55.35,55.35,0,0,1-16.6,7.44,77.21,77.21,0,0,1-20.56,2.6,68,68,0,0,1-24.8-4.25,49.72,49.72,0,0,1-18.52-12.35A53.62,53.62,0,0,1,131.61,139a81.92,81.92,0,0,1-4-26.46,82.94,82.94,0,0,1,4-26.73A55.72,55.72,0,0,1,143.3,65.72,51.27,51.27,0,0,1,161.71,53a63.37,63.37,0,0,1,24.36-4.46,65,65,0,0,1,24,4.19A48.48,48.48,0,0,1,228,64.78a52.67,52.67,0,0,1,11.19,19.29,80.6,80.6,0,0,1,3.86,25.86v9.81H159.61v1.65a36,36,0,0,0,2.15,12.24,27.52,27.52,0,0,0,5.62,9.21,24.15,24.15,0,0,0,8.66,5.84,30.21,30.21,0,0,0,11.36,2q9.58,0,15.93-3.25a18.25,18.25,0,0,0,8.87-9.32ZM186.18,73.1A27.07,27.07,0,0,0,175.93,75a24.45,24.45,0,0,0-8.1,5.29,25.86,25.86,0,0,0-5.57,8.21,32.8,32.8,0,0,0-2.54,10.75h51.82q-.56-12.12-7.28-19.12T186.18,73.1Z"/><path class="cls-1" d="M264.34,51.16h32.08V172.77H264.34Z"/><path class="cls-1" d="M432.12,138.15a43.28,43.28,0,0,1-18.41,27.23,55.4,55.4,0,0,1-16.59,7.44,77.26,77.26,0,0,1-20.56,2.6,68.07,68.07,0,0,1-24.81-4.25,49.8,49.8,0,0,1-18.52-12.35A53.75,53.75,0,0,1,321.65,139a82.21,82.21,0,0,1-4-26.46,82.94,82.94,0,0,1,4-26.73,55.7,55.7,0,0,1,11.63-20.12A51.36,51.36,0,0,1,351.75,53a63.45,63.45,0,0,1,24.37-4.46,64.92,64.92,0,0,1,24,4.19,48.44,48.44,0,0,1,17.92,12.07,53,53,0,0,1,11.19,19.29,80.6,80.6,0,0,1,3.86,25.86v9.81H349.66v1.65a36,36,0,0,0,2.15,12.24,27.36,27.36,0,0,0,5.62,9.21,24.07,24.07,0,0,0,8.66,5.84,30.12,30.12,0,0,0,11.35,2q9.6,0,15.93-3.25a18.23,18.23,0,0,0,8.88-9.32ZM376.23,73.1A27.12,27.12,0,0,0,366,75a24.65,24.65,0,0,0-8.1,5.29,26.19,26.19,0,0,0-5.57,8.21,32.8,32.8,0,0,0-2.53,10.75h51.82q-.55-12.12-7.28-19.12T376.23,73.1Z"/><path class="cls-1" d="M451.41,153.81l61.51-75.08v-2H452.29V51.16h99V72.33l-58,72.88v2h59.42v25.58H451.41Z"/><path class="cls-1" d="M2.77,229.42H0l8.29-23H10.9l8.26,23H16.25l-2.39-7.09H5.16Zm6.8-19.7H9.48L5.93,220.14h7.19Z"/><path class="cls-1" d="M20.82,223.26h2.71a4.22,4.22,0,0,0,1.7,3,6.57,6.57,0,0,0,4.12,1.17,6.28,6.28,0,0,0,3.93-1.13,3.64,3.64,0,0,0,1.49-3.06,3.16,3.16,0,0,0-.92-2.35A6.44,6.44,0,0,0,31,219.49l-4.12-1.1A8.36,8.36,0,0,1,23,216.33a5.21,5.21,0,0,1-1.49-3.9,5.85,5.85,0,0,1,1.14-3.59,6.61,6.61,0,0,1,2.89-2.26,10,10,0,0,1,3.82-.72,10.13,10.13,0,0,1,2.83.39,9.17,9.17,0,0,1,2.48,1.14,5.42,5.42,0,0,1,1.84,2,6.7,6.7,0,0,1,.75,2.94H34.57A4.22,4.22,0,0,0,33,209.43a5.6,5.6,0,0,0-3.72-1.12,6,6,0,0,0-3.66,1,3.38,3.38,0,0,0-1.41,2.9q0,2.67,3.27,3.52l4,1.08A10.52,10.52,0,0,1,36,219.09a5.21,5.21,0,0,1,1.53,4,5.91,5.91,0,0,1-2.4,5.06A10,10,0,0,1,29,229.9a10.67,10.67,0,0,1-3.76-.61,6.47,6.47,0,0,1-2.55-1.61,7.45,7.45,0,0,1-1.37-2.12A6.32,6.32,0,0,1,20.82,223.26Z"/><path class="cls-1" d="M41.17,219.76V216.3a11,11,0,0,1,2.47-7.6,8.48,8.48,0,0,1,6.64-2.78,8.47,8.47,0,0,1,6.63,2.76q2.48,2.76,2.47,7.62v3.46q0,4.83-2.49,7.48a8.65,8.65,0,0,1-6.66,2.66,8.51,8.51,0,0,1-6.63-2.66Q41.17,224.58,41.17,219.76Zm2.67-3.46v3.46a10.89,10.89,0,0,0,.5,3.42,6.35,6.35,0,0,0,1.37,2.42,5.73,5.73,0,0,0,2,1.39,6.68,6.68,0,0,0,2.54.46A6.79,6.79,0,0,0,52.8,227a5.79,5.79,0,0,0,2.05-1.39,6.1,6.1,0,0,0,1.37-2.42,11.21,11.21,0,0,0,.48-3.42V216.3a8.71,8.71,0,0,0-1.79-5.87,6.27,6.27,0,0,0-9.28,0A8.67,8.67,0,0,0,43.84,216.3Z"/><path class="cls-1" d="M66,216.3v3.38q0,3.9,1.69,5.84a6.71,6.71,0,0,0,8.81.53A4.54,4.54,0,0,0,78,222.62h2.65a6.38,6.38,0,0,1-.51,2.46,8.26,8.26,0,0,1-1.47,2.36,6.81,6.81,0,0,1-2.64,1.79,10.15,10.15,0,0,1-3.81.67,8.35,8.35,0,0,1-6.51-2.62q-2.38-2.62-2.38-7.55v-3.49c0-3.25.8-5.79,2.42-7.6a8.26,8.26,0,0,1,6.5-2.72,9.66,9.66,0,0,1,3.69.68,7.1,7.1,0,0,1,2.64,1.8,8.76,8.76,0,0,1,1.53,2.47,7.32,7.32,0,0,1,.54,2.75H78A5.1,5.1,0,0,0,76.48,210a6.17,6.17,0,0,0-8.74.45A9,9,0,0,0,66,216.3Z"/><path class="cls-1" d="M88.09,229.42H85.38v-23h2.71Z"/><path class="cls-1" d="M94.29,229.42H91.51l8.29-23h2.62l8.25,23h-2.91l-2.38-7.09H96.67Zm6.8-19.7H101l-3.54,10.42h7.18Z"/><path class="cls-1" d="M115.88,216.3v3.38q0,3.9,1.68,5.84a5.87,5.87,0,0,0,4.67,1.93,5.79,5.79,0,0,0,4.15-1.4,4.53,4.53,0,0,0,1.48-3.43h2.65a6.55,6.55,0,0,1-.5,2.46,8.73,8.73,0,0,1-1.47,2.36,6.88,6.88,0,0,1-2.64,1.79,10.15,10.15,0,0,1-3.81.67,8.35,8.35,0,0,1-6.51-2.62q-2.39-2.62-2.38-7.55v-3.49c0-3.25.8-5.79,2.41-7.6a8.28,8.28,0,0,1,6.51-2.72,9.58,9.58,0,0,1,3.68.68,7.06,7.06,0,0,1,2.65,1.8,8.76,8.76,0,0,1,1.53,2.47,7.51,7.51,0,0,1,.53,2.75h-2.65a5.09,5.09,0,0,0-1.54-3.65,6.17,6.17,0,0,0-8.74.45A8.92,8.92,0,0,0,115.88,216.3Z"/><path class="cls-1" d="M137.93,229.42h-2.71v-23h2.71Z"/><path class="cls-1" d="M142.81,219.76V216.3a11,11,0,0,1,2.48-7.6,9.32,9.32,0,0,1,13.26,0q2.47,2.76,2.47,7.62v3.46q0,4.83-2.48,7.48a8.67,8.67,0,0,1-6.67,2.66,8.51,8.51,0,0,1-6.63-2.66Q142.81,224.58,142.81,219.76Zm2.68-3.46v3.46a10.9,10.9,0,0,0,.49,3.42,6.35,6.35,0,0,0,1.37,2.42,5.76,5.76,0,0,0,2,1.39,6.63,6.63,0,0,0,2.53.46,6.75,6.75,0,0,0,2.54-.46,5.79,5.79,0,0,0,2.05-1.39,6,6,0,0,0,1.37-2.42,11.21,11.21,0,0,0,.48-3.42V216.3a8.66,8.66,0,0,0-1.79-5.87,6.25,6.25,0,0,0-9.27,0A8.62,8.62,0,0,0,145.49,216.3Zm4.32-12.4,4.27-3.4h3.19l-4.44,3.4Z"/><path class="cls-1" d="M168.61,229.42H165.9v-23h2.71l11.77,18.41h.13V206.4h2.67v23h-2.67L168.7,211h-.09Z"/><path class="cls-1" d="M209.74,227v2.45H196.07v-23h13.67v2.45h-11v7.58h10.35v2.44H198.78V227Z"/><path class="cls-1" d="M217.21,229.42h-2.46v-23h2.58l7.78,18.44h.09l7.73-18.44h2.62v23H233.1V212.27h-.17l-6.57,15.39H224l-6.62-15.39h-.12Z"/><path class="cls-1" d="M241.42,206.4h8.25a7.2,7.2,0,0,1,5.25,2,7.59,7.59,0,0,1,0,10.27,7.22,7.22,0,0,1-5.25,1.93h-5.54v8.86h-2.71Zm2.71,2.42v9.32h3.6a17.58,17.58,0,0,0,1.89-.08,12.7,12.7,0,0,0,1.58-.26,4,4,0,0,0,1.27-.51,3.74,3.74,0,0,0,.92-.86,3.23,3.23,0,0,0,.58-1.24,7.12,7.12,0,0,0,.18-1.69A4.74,4.74,0,0,0,253,210a4.51,4.51,0,0,0-3.37-1.22Z"/><path class="cls-1" d="M269,206.4a8.83,8.83,0,0,1,3.27.57,5.89,5.89,0,0,1,2.29,1.52,6.52,6.52,0,0,1,1.29,2.14,7.5,7.5,0,0,1,.43,2.57,6.53,6.53,0,0,1-1.24,4.17,6.89,6.89,0,0,1-3.05,2.25l4.71,9.8h-3.1l-4.27-9.25h-5.81v9.25h-2.71v-23Zm-5.48,11.36h5a5.37,5.37,0,0,0,3.7-1.13,4.12,4.12,0,0,0,1.26-3.22,4.37,4.37,0,0,0-1.29-3.41,5,5,0,0,0-3.55-1.18h-5.15Z"/><path class="cls-1" d="M295,227v2.45H281.31v-23H295v2.45H284v7.58h10.35v2.44H284V227Z"/><path class="cls-1" d="M298.13,223.26h2.71a4.22,4.22,0,0,0,1.7,3,6.61,6.61,0,0,0,4.12,1.17,6.29,6.29,0,0,0,3.94-1.13,3.64,3.64,0,0,0,1.49-3.06,3.13,3.13,0,0,0-.93-2.35,6.34,6.34,0,0,0-2.89-1.42l-4.12-1.1a8.33,8.33,0,0,1-3.81-2.06,5.18,5.18,0,0,1-1.5-3.9,5.85,5.85,0,0,1,1.14-3.59,6.64,6.64,0,0,1,2.9-2.26,10.45,10.45,0,0,1,6.64-.33,9.37,9.37,0,0,1,2.49,1.14,5.48,5.48,0,0,1,1.83,2,6.7,6.7,0,0,1,.75,2.94h-2.71a4.25,4.25,0,0,0-1.52-2.94,5.65,5.65,0,0,0-3.73-1.12,6,6,0,0,0-3.65,1,3.38,3.38,0,0,0-1.41,2.9q0,2.67,3.27,3.52l4,1.08a10.52,10.52,0,0,1,4.43,2.25,5.18,5.18,0,0,1,1.54,4,5.91,5.91,0,0,1-2.4,5.06,10,10,0,0,1-6.12,1.77,10.73,10.73,0,0,1-3.77-.61,6.43,6.43,0,0,1-2.54-1.61,7.24,7.24,0,0,1-1.37-2.12A6.34,6.34,0,0,1,298.13,223.26Z"/><path class="cls-1" d="M319.8,229.42H317l8.29-23h2.62l8.25,23h-2.91l-2.38-7.09h-8.71Zm6.8-19.7h-.1L323,220.14h7.18Z"/><path class="cls-1" d="M347.8,206.4a8.83,8.83,0,0,1,3.27.57,5.89,5.89,0,0,1,2.29,1.52,6.32,6.32,0,0,1,1.28,2.14,7.5,7.5,0,0,1,.44,2.57,6.59,6.59,0,0,1-1.24,4.17,6.89,6.89,0,0,1-3,2.25l4.71,9.8h-3.1l-4.28-9.25h-5.8v9.25h-2.71v-23Zm-5.48,11.36h5a5.39,5.39,0,0,0,3.7-1.13,4.12,4.12,0,0,0,1.26-3.22A4.37,4.37,0,0,0,351,210a5,5,0,0,0-3.55-1.18h-5.15Z"/><path class="cls-1" d="M362.79,229.42h-2.71v-23h2.71Z"/><path class="cls-1" d="M369,229.42h-2.77l8.29-23h2.62l8.25,23h-2.91l-2.39-7.09h-8.7Zm6.8-19.7h-.09l-3.55,10.42h7.19Z"/><path class="cls-1" d="M402.24,227v2.45H388.79v-23h2.71V227Z"/><path class="cls-1" d="M412.64,206.4h7.22a12,12,0,0,1,4.69.84,7.38,7.38,0,0,1,3.15,2.42,10.9,10.9,0,0,1,1.71,3.62,18.15,18.15,0,0,1,.55,4.63,17.87,17.87,0,0,1-.54,4.6,11,11,0,0,1-1.66,3.61,7.2,7.2,0,0,1-3.13,2.45,12.07,12.07,0,0,1-4.77.85h-7.22Zm2.71,2.42V227h4.42q7.41,0,7.42-9.06t-7.42-9.09Z"/><path class="cls-1" d="M448.15,227v2.45H434.48v-23h13.67v2.45h-11v7.58h10.35v2.44H437.19V227Z"/><path class="cls-1" d="M5.06,267.49H2.35v-23H5.06Z"/><path class="cls-1" d="M13.55,267.49H10.84v-23h2.71l11.77,18.4h.13v-18.4h2.68v23H25.45l-11.81-18.4h-.09Z"/><path class="cls-1" d="M32.14,261.32h2.71a4.2,4.2,0,0,0,1.7,3,6.53,6.53,0,0,0,4.12,1.18,6.34,6.34,0,0,0,3.93-1.13,3.64,3.64,0,0,0,1.49-3.07,3.14,3.14,0,0,0-.92-2.34,6.34,6.34,0,0,0-2.89-1.42l-4.12-1.1a8.36,8.36,0,0,1-3.82-2.06,5.21,5.21,0,0,1-1.49-3.9A5.86,5.86,0,0,1,34,246.9a6.72,6.72,0,0,1,2.89-2.25,10,10,0,0,1,3.82-.72,10.51,10.51,0,0,1,2.83.38A9.17,9.17,0,0,1,46,245.45a5.46,5.46,0,0,1,1.84,2.05,6.65,6.65,0,0,1,.75,2.93H45.89a4.2,4.2,0,0,0-1.53-2.93,5.6,5.6,0,0,0-3.72-1.13,6.1,6.1,0,0,0-3.66,1,3.4,3.4,0,0,0-1.41,2.91c0,1.77,1.09,2.95,3.27,3.51l4,1.09a10.52,10.52,0,0,1,4.43,2.24,5.23,5.23,0,0,1,1.53,4,5.91,5.91,0,0,1-2.4,5.05A10,10,0,0,1,40.31,268a10.66,10.66,0,0,1-3.76-.62A6.32,6.32,0,0,1,34,265.74a7.4,7.4,0,0,1-1.37-2.11A6.33,6.33,0,0,1,32.14,261.32Z"/><path class="cls-1" d="M60.68,267.49H58v-20.6H50.94v-2.42H67.73v2.42H60.68Z"/><path class="cls-1" d="M71.47,267.49H68.7l8.29-23h2.62l8.25,23H85l-2.39-7.1h-8.7Zm6.8-19.71h-.09l-3.55,10.43h7.19Z"/><path class="cls-1" d="M104.73,265v2.45H91.28v-23H94V265Z"/><path class="cls-1" d="M108.44,267.49h-2.77l8.29-23h2.61l8.26,23h-2.91l-2.39-7.1h-8.7Zm6.8-19.71h-.09l-3.55,10.43h7.19Z"/><path class="cls-1" d="M130,254.37v3.37c0,2.61.56,4.55,1.69,5.84a6.69,6.69,0,0,0,8.81.54,4.55,4.55,0,0,0,1.49-3.43h2.65a6.45,6.45,0,0,1-.51,2.46,8.08,8.08,0,0,1-1.47,2.35,6.63,6.63,0,0,1-2.64,1.79,10.07,10.07,0,0,1-3.81.68,8.35,8.35,0,0,1-6.5-2.63q-2.39-2.62-2.39-7.55v-3.48q0-4.89,2.42-7.6a8.27,8.27,0,0,1,6.5-2.72,9.63,9.63,0,0,1,3.69.67,7,7,0,0,1,2.64,1.81,8.2,8.2,0,0,1,1.53,2.47,7.28,7.28,0,0,1,.54,2.75H142a5.12,5.12,0,0,0-1.55-3.66,6.2,6.2,0,0,0-8.74.45A9,9,0,0,0,130,254.37Z"/><path class="cls-1" d="M152.09,267.49h-2.72v-23h2.72Z"/><path class="cls-1" d="M157,257.82v-3.45a11,11,0,0,1,2.48-7.61,9.34,9.34,0,0,1,13.27,0c1.64,1.83,2.47,4.37,2.47,7.62v3.45q0,4.83-2.49,7.49A8.71,8.71,0,0,1,166,268a8.56,8.56,0,0,1-6.63-2.66Q157,262.66,157,257.82Zm2.68-3.45v3.45a10.89,10.89,0,0,0,.5,3.42,6.26,6.26,0,0,0,1.37,2.43,5.74,5.74,0,0,0,2,1.38,6.67,6.67,0,0,0,2.53.47,6.75,6.75,0,0,0,2.54-.47,5.93,5.93,0,0,0,2.06-1.38,6.14,6.14,0,0,0,1.37-2.43,11.21,11.21,0,0,0,.48-3.42v-3.45a8.69,8.69,0,0,0-1.79-5.87,6.28,6.28,0,0,0-9.28,0A8.7,8.7,0,0,0,159.64,254.37Z"/><path class="cls-1" d="M182.76,267.49h-2.71v-23h2.71l11.78,18.4h.12v-18.4h2.68v23h-2.68l-11.8-18.4h-.1Z"/><path class="cls-1" d="M216.79,265v2.45H203.12v-23h13.67v2.45h-11v7.57h10.34v2.45H205.83V265Z"/><path class="cls-1" d="M219.93,261.32h2.71a4.25,4.25,0,0,0,1.71,3,6.51,6.51,0,0,0,4.12,1.18,6.34,6.34,0,0,0,3.93-1.13,3.67,3.67,0,0,0,1.49-3.07A3.14,3.14,0,0,0,233,259a6.34,6.34,0,0,0-2.89-1.42l-4.12-1.1a8.36,8.36,0,0,1-3.82-2.06,5.18,5.18,0,0,1-1.49-3.9,5.86,5.86,0,0,1,1.14-3.6,6.66,6.66,0,0,1,2.89-2.25,10,10,0,0,1,3.82-.72,10.51,10.51,0,0,1,2.83.38,9.17,9.17,0,0,1,2.48,1.14,5.46,5.46,0,0,1,1.84,2.05,6.65,6.65,0,0,1,.75,2.93h-2.71a4.23,4.23,0,0,0-1.53-2.93,5.6,5.6,0,0,0-3.72-1.13,6.1,6.1,0,0,0-3.66,1,3.4,3.4,0,0,0-1.41,2.91c0,1.77,1.09,2.95,3.27,3.51l4,1.09a10.52,10.52,0,0,1,4.43,2.24,5.23,5.23,0,0,1,1.53,4,5.91,5.91,0,0,1-2.4,5.05,10,10,0,0,1-6.12,1.78,10.66,10.66,0,0,1-3.76-.62,6.19,6.19,0,0,1-2.55-1.61,7.4,7.4,0,0,1-1.37-2.11A6.34,6.34,0,0,1,219.93,261.32Z"/><path class="cls-1" d="M262,265v2.45H248.29v-23H262v2.45H251v7.57h10.35v2.45H251V265Z"/><path class="cls-1" d="M280.32,265v2.45H266.88v-23h2.71V265Z"/><path class="cls-1" d="M297.29,265v2.45H283.62v-23h13.67v2.45h-11v7.57h10.34v2.45H286.33V265Z"/><path class="cls-1" d="M304,254.37v3.37c0,2.61.57,4.55,1.69,5.84a6.69,6.69,0,0,0,8.81.54,4.52,4.52,0,0,0,1.49-3.43h2.65a6.63,6.63,0,0,1-.5,2.46,8.34,8.34,0,0,1-1.48,2.35,6.63,6.63,0,0,1-2.64,1.79,10.07,10.07,0,0,1-3.81.68,8.35,8.35,0,0,1-6.5-2.63q-2.38-2.62-2.39-7.55v-3.48q0-4.89,2.42-7.6a8.27,8.27,0,0,1,6.5-2.72,9.59,9.59,0,0,1,3.69.67,6.85,6.85,0,0,1,2.64,1.81,8.44,8.44,0,0,1,1.54,2.47,7.47,7.47,0,0,1,.53,2.75H316a5.12,5.12,0,0,0-1.55-3.66,6.18,6.18,0,0,0-8.73.45A9,9,0,0,0,304,254.37Z"/><path class="cls-1" d="M330.62,267.49h-2.68v-20.6h-7.06v-2.42h16.79v2.42h-7.05Z"/><path class="cls-1" d="M349.19,244.47a8.83,8.83,0,0,1,3.27.57,5.88,5.88,0,0,1,2.29,1.51A6.56,6.56,0,0,1,356,248.7a7.41,7.41,0,0,1,.43,2.57,6.57,6.57,0,0,1-1.24,4.17,6.74,6.74,0,0,1-3.05,2.24l4.71,9.81h-3.1l-4.27-9.25h-5.81v9.25H341v-23Zm-5.48,11.35h5a5.32,5.32,0,0,0,3.7-1.13,4.1,4.1,0,0,0,1.26-3.22,4.39,4.39,0,0,0-1.29-3.41,5.06,5.06,0,0,0-3.54-1.17h-5.16Z"/><path class="cls-1" d="M364.18,267.49h-2.71v-23h2.71Z"/><path class="cls-1" d="M371.74,254.37v3.37c0,2.61.56,4.55,1.69,5.84a6.69,6.69,0,0,0,8.81.54,4.55,4.55,0,0,0,1.49-3.43h2.65a6.45,6.45,0,0,1-.51,2.46,8.08,8.08,0,0,1-1.47,2.35,6.63,6.63,0,0,1-2.64,1.79A10.15,10.15,0,0,1,378,268a8.36,8.36,0,0,1-6.51-2.63q-2.38-2.62-2.38-7.55v-3.48c0-3.26.8-5.79,2.42-7.6A8.26,8.26,0,0,1,378,244a9.66,9.66,0,0,1,3.69.67,7,7,0,0,1,2.64,1.81,8.62,8.62,0,0,1,1.53,2.47,7.28,7.28,0,0,1,.54,2.75h-2.65a5.12,5.12,0,0,0-1.55-3.66,6.2,6.2,0,0,0-8.74.45A9,9,0,0,0,371.74,254.37Z"/><path class="cls-1" d="M391.5,267.49h-2.77l8.28-23h2.62l8.26,23H405l-2.39-7.1h-8.7Zm6.8-19.71h-.09l-3.55,10.43h7.19Z"/><path class="cls-1" d="M409.54,261.32h2.71a4.25,4.25,0,0,0,1.71,3,6.51,6.51,0,0,0,4.12,1.18,6.34,6.34,0,0,0,3.93-1.13,3.67,3.67,0,0,0,1.49-3.07,3.14,3.14,0,0,0-.92-2.34,6.34,6.34,0,0,0-2.89-1.42l-4.12-1.1a8.36,8.36,0,0,1-3.82-2.06,5.18,5.18,0,0,1-1.49-3.9,5.91,5.91,0,0,1,1.13-3.6,6.75,6.75,0,0,1,2.9-2.25,10,10,0,0,1,3.82-.72,10.51,10.51,0,0,1,2.83.38,9.17,9.17,0,0,1,2.48,1.14,5.46,5.46,0,0,1,1.84,2.05,6.65,6.65,0,0,1,.75,2.93H423.3a4.27,4.27,0,0,0-1.53-2.93,5.6,5.6,0,0,0-3.72-1.13,6.1,6.1,0,0,0-3.66,1,3.4,3.4,0,0,0-1.41,2.91c0,1.77,1.09,2.95,3.27,3.51l4,1.09a10.58,10.58,0,0,1,4.43,2.24,5.23,5.23,0,0,1,1.53,4,5.91,5.91,0,0,1-2.4,5.05,10,10,0,0,1-6.12,1.78,10.66,10.66,0,0,1-3.76-.62,6.19,6.19,0,0,1-2.55-1.61,7.4,7.4,0,0,1-1.37-2.11A6.34,6.34,0,0,1,409.54,261.32Z"/><path class="cls-1" d="M2.35,282.53H9.57a12,12,0,0,1,4.69.84,7.32,7.32,0,0,1,3.15,2.42,10.9,10.9,0,0,1,1.71,3.62,17.71,17.71,0,0,1,.55,4.63,18.21,18.21,0,0,1-.53,4.59,11.22,11.22,0,0,1-1.67,3.62,7.22,7.22,0,0,1-3.13,2.45,12.07,12.07,0,0,1-4.77.85H2.35ZM5.06,285V303.1H9.48q7.41,0,7.42-9.06T9.48,285Z"/><path class="cls-1" d="M37.87,303.1v2.45H24.19v-23H37.87V285h-11v7.58H37.25V295H26.9v8.1Z"/><path class="cls-1" d="M48.51,305.55v-1.94L61,285.15V285H49v-2.42H64.33v1.91L51.91,302.93v.17h12.7v2.45Z"/><path class="cls-1" d="M69.72,305.55H67l8.29-23h2.61l8.26,23H83.2l-2.39-7.09h-8.7Zm6.8-19.7h-.09l-3.55,10.42h7.19Z"/><path class="cls-1" d="M97.72,282.53a8.83,8.83,0,0,1,3.27.57,5.82,5.82,0,0,1,2.29,1.52,6.52,6.52,0,0,1,1.29,2.14,7.45,7.45,0,0,1,.43,2.57,6.59,6.59,0,0,1-1.23,4.17,6.92,6.92,0,0,1-3.06,2.25l4.71,9.8h-3.1l-4.27-9.25H92.24v9.25H89.53v-23Zm-5.48,11.36h5a5.39,5.39,0,0,0,3.7-1.13,4.14,4.14,0,0,0,1.25-3.22,4.4,4.4,0,0,0-1.28-3.41A5,5,0,0,0,97.4,285H92.24Z"/><path class="cls-1" d="M110.42,305.55h-2.77l8.29-23h2.62l8.25,23H123.9l-2.39-7.09h-8.7Zm6.8-19.7h-.09l-3.55,10.42h7.19Z"/><path class="cls-1" d="M146.84,289.5h-2.65a5.32,5.32,0,0,0-1.93-3.76,6.16,6.16,0,0,0-3.87-1.24,6,6,0,0,0-4.59,1.95c-1.19,1.3-1.79,3.28-1.79,5.92v3.22a9.42,9.42,0,0,0,1.63,5.89,5.57,5.57,0,0,0,4.69,2.1,6.36,6.36,0,0,0,4.27-1.44,4.72,4.72,0,0,0,1.7-3.75v-2.32h-6.17v-2.45h8.77v4.77a7.7,7.7,0,0,1-.26,1.92,7.81,7.81,0,0,1-.88,2,7.23,7.23,0,0,1-1.58,1.86,7.44,7.44,0,0,1-2.46,1.32,10.4,10.4,0,0,1-3.36.51,8.27,8.27,0,0,1-6.72-2.76c-1.54-1.83-2.31-4.4-2.31-7.68v-3.22c0-3.25.83-5.79,2.48-7.6a8.57,8.57,0,0,1,6.65-2.72,8.2,8.2,0,0,1,6,2.13A7.87,7.87,0,0,1,146.84,289.5Z"/><path class="cls-1" d="M150.88,295.89v-3.46a11,11,0,0,1,2.47-7.6,9.33,9.33,0,0,1,13.27,0q2.48,2.76,2.47,7.62v3.46q0,4.83-2.48,7.48a8.71,8.71,0,0,1-6.67,2.66,8.54,8.54,0,0,1-6.63-2.66Q150.88,300.72,150.88,295.89Zm2.68-3.46v3.46a10.9,10.9,0,0,0,.49,3.42,6.35,6.35,0,0,0,1.37,2.42,5.76,5.76,0,0,0,2,1.39,6.59,6.59,0,0,0,2.53.46,6.79,6.79,0,0,0,2.54-.46,5.79,5.79,0,0,0,2.05-1.39,6.1,6.1,0,0,0,1.37-2.42,11.21,11.21,0,0,0,.48-3.42v-3.46a8.64,8.64,0,0,0-1.79-5.87,6.25,6.25,0,0,0-9.27,0A8.62,8.62,0,0,0,153.56,292.43Z"/><path class="cls-1" d="M172.59,305.55v-1.94l12.5-18.46V285H173v-2.42h15.38v1.91L176,302.93v.17h12.7v2.45Z"/><path class="cls-1" d="M193.81,305.55H191l8.28-23h2.62l8.25,23h-2.91l-2.38-7.09h-8.71Zm6.8-19.7h-.1L197,296.27h7.18Z"/><polygon class="cls-1" points="436.4 306.03 552.02 306.03 552.02 190.42 436.4 306.03"/><path class="cls-1" d="M95,59.44a34.48,34.48,0,0,1,9.76,13,42.84,42.84,0,0,1,3.36,17.36v83H77.06V156.9h-2A32.36,32.36,0,0,1,61,170a46.62,46.62,0,0,1-21.22,4.69,47.9,47.9,0,0,1-16.1-2.59,36.81,36.81,0,0,1-12.56-7.39,33.27,33.27,0,0,1-8.22-11.52A37.5,37.5,0,0,1,0,138q0-16.63,12.13-26t34.95-10.64l29.43-1.76V89.75M50.38,150.5a31.37,31.37,0,0,0,10.37-1.65A26,26,0,0,0,69,144.22a21.77,21.77,0,0,0,5.51-6.95,19,19,0,0,0,2-8.6v-8.93l-24.58,1.55Q31.42,122.71,31.42,136a12.48,12.48,0,0,0,5.29,10.69Q42,150.51,50.38,150.5Z"/><path class="cls-1" d="M77.06,172.77l-.55-94H26V51.16h82.17V172.77"/></g></g></svg>