<svg xmlns="http://www.w3.org/2000/svg" viewBox="0 0 128 89.99"><defs><style>.cls-1{fill:#fff;}.cls-2{fill:#e20e18;}</style></defs><g id="Capa_2" data-name="Capa 2"><g id="Capa_1-2" data-name="Capa 1"><polygon class="cls-1" points="35.48 66.82 32.76 70.41 50.24 70.41 50.24 78.11 27.26 78.11 24.68 81.7 50.24 81.7 50.24 89.99 0 89.99 22.7 58.22 50.24 58.22 50.24 66.82 35.48 66.82"/><polygon class="cls-1" points="128 89.99 77.76 89.99 77.76 81.7 103.32 81.7 100.74 78.11 77.76 78.11 77.76 70.41 95.24 70.41 92.52 66.82 77.76 66.82 77.76 58.22 105.3 58.22 128 89.99"/><polygon class="cls-1" points="102.47 53.48 83.08 53.48 64 26.96 45.15 53.48 26.08 53.48 64.28 0 102.47 53.48"/><rect class="cls-1" x="55.7" y="70.61" width="17.03" height="19.39"/><path class="cls-2" d="M76.69,53.8a12.48,12.48,0,0,1-24.95,0c0-.11,0-.21,0-.32a12.47,12.47,0,0,1,24.93,0C76.69,53.59,76.69,53.69,76.69,53.8Z"/></g></g></svg>